<svg width="24" height="24" viewBox="0 0 24 24" fill="none" xmlns="http://www.w3.org/2000/svg">
<path d="M18.1714 21H5.82857C5.07839 21 4.35893 20.702 3.82847 20.1715C3.29801 19.6411 3 18.9216 3 18.1714V5.82857C3 5.07839 3.29801 4.35893 3.82847 3.82847C4.35893 3.29801 5.07839 3 5.82857 3H12C12.2046 3 12.4008 3.08128 12.5455 3.22595C12.6902 3.37062 12.7714 3.56683 12.7714 3.77143C12.7714 3.97602 12.6902 4.17224 12.5455 4.31691C12.4008 4.46158 12.2046 4.54286 12 4.54286H5.82857C5.48758 4.54286 5.16055 4.67832 4.91943 4.91943C4.67832 5.16055 4.54286 5.48758 4.54286 5.82857V18.1714C4.54286 18.5124 4.67832 18.8394 4.91943 19.0806C5.16055 19.3217 5.48758 19.4571 5.82857 19.4571H18.1714C18.5124 19.4571 18.8394 19.3217 19.0806 19.0806C19.3217 18.8394 19.4571 18.5124 19.4571 18.1714V12C19.4571 11.7954 19.5384 11.5992 19.6831 11.4545C19.8278 11.3098 20.024 11.2286 20.2286 11.2286C20.4332 11.2286 20.6294 11.3098 20.7741 11.4545C20.9187 11.5992 21 11.7954 21 12V18.1714C21 18.9216 20.702 19.6411 20.1715 20.1715C19.6411 20.702 18.9216 21 18.1714 21Z" fill="white" fill-opacity="0.7"/>
<path d="M20.1816 3C20.3978 3.00283 20.604 3.09033 20.7568 3.24316C20.9097 3.39599 20.9972 3.60224 21 3.81836V8.18164C20.9972 8.39776 20.9097 8.60401 20.7568 8.75684C20.604 8.90967 20.3978 8.99717 20.1816 9C19.9656 8.99713 19.7592 8.90962 19.6064 8.75684C19.4537 8.60402 19.3661 8.39767 19.3633 8.18164V5.80566L13.3418 11.7188C13.1981 11.8826 12.9956 11.9834 12.7783 12C12.561 11.9834 12.3585 11.8826 12.2148 11.7188C12.0764 11.5639 12.0001 11.363 12 11.1553C12 10.9475 12.0764 10.7467 12.2148 10.5918L18.1689 4.63672H15.8184C15.6014 4.63672 15.3927 4.54992 15.2393 4.39648C15.0861 4.24312 15 4.03514 15 3.81836C15 3.60136 15.0858 3.3927 15.2393 3.23926C15.3927 3.08582 15.6014 3 15.8184 3H20.1816Z" fill="white" fill-opacity="0.7"/>
</svg>
