<svg width="16" height="16" viewBox="0 0 16 16" fill="none" xmlns="http://www.w3.org/2000/svg">
<g clip-path="url(#clip0_127_1206)">
<circle cx="8" cy="8" r="8" fill="#232328"/>
<path d="M5.579 3.64H7.477C8.439 3.64 9.18 3.744 9.7 3.9C10.207 4.043 10.636 4.342 10.974 4.719C11.299 5.109 11.468 5.577 11.468 6.162C11.468 6.669 11.351 7.111 11.13 7.488C10.896 7.878 10.571 8.151 10.155 8.346C9.726 8.554 8.985 8.593 7.919 8.593H6.918V10.66C6.918 11.063 6.905 11.271 6.918 11.583V13H5.579V10.66V6.11V3.64ZM9.687 7.527C9.908 7.189 10.012 6.76 10.012 6.266C10.012 5.499 9.83 4.927 9.453 4.576C9.076 4.212 8.465 4.03 7.62 4.03C7.308 4.03 7.074 4.043 6.918 4.056V8.281H7.568C8.101 8.281 8.53 8.268 8.855 8.164C9.193 8.06 9.466 7.878 9.687 7.527Z" fill="white"/>
</g>
<defs>
<clipPath id="clip0_127_1206">
<rect width="16" height="16" fill="white"/>
</clipPath>
</defs>
</svg>
